<svg version="1.1" id="Слой_1" xmlns="http://www.w3.org/2000/svg" xmlns:xlink="http://www.w3.org/1999/xlink" x="0px" y="0px" viewBox="0 0 1079 120" enable-background="new 0 0 1079 120" xml:space="preserve"> <title>cloud platform with whmcs, osa and cleverbridge billing systems</title> <desc>PaaS cloud platform offers integration with popular billing systems WHMCS and OSA to speed up the deployment</desc> <g> <path fill="#5C87B3" d="M300.178,50.508v-9.213c0,0-6.192-3.689-13.933-3.689c-5.68,0-16.785,1.004-18.211,15.742c0,0-1.667,10.552,14.966,14.266c0,0,11.058,2.321,11.058,8.183c-0.186,2.874-1.106,5.825-11.058,5.825c-9.585-0.591-10.691-2.874-14.451-4.939v9.581c0,0,4.794,4.055,16.735,4.427c11.648-0.442,17.604-5.824,18.672-14.434c0,0,1.604-11.742-14.392-16.608c-9.365-3.169-11.872-2.064-12.315-7.149c0.076-4.571,4.794-5.896,9.808-6.044C294.944,46.456,300.178,50.508,300.178,50.508" /> <path fill="#5C87B3" d="M253.912,71.742c-2.414,3.283-6.301,5.419-10.686,5.419c-7.318,0-13.253-5.934-13.253-13.252c0-7.319,5.935-13.249,13.253-13.249c5.719,0,10.59,3.621,12.447,8.698h8.892l-0.114-0.034c-0.152-0.7-0.337-1.388-0.553-2.064l5.035-5.01l-2.761-4.782l-6.862,1.857c-0.477-0.523-0.979-1.03-1.507-1.507l1.861-6.863l-4.782-2.76l-5.014,5.04c-0.671-0.22-1.363-0.401-2.064-0.554l-1.823-6.884h-5.52l-1.823,6.884c-0.701,0.152-1.389,0.338-2.06,0.554l-5.014-5.044l-4.782,2.76l1.861,6.871c-0.528,0.477-1.03,0.98-1.511,1.507l-6.863-1.861l-2.76,4.782l5.039,5.014c-0.216,0.675-0.401,1.363-0.549,2.063l-6.879,1.823v5.521L222,68.492c0.148,0.7,0.333,1.389,0.549,2.064l-5.039,5.014l2.76,4.782l6.867-1.861c0.477,0.528,0.983,1.03,1.511,1.507l-1.861,6.871l4.782,2.757l5.014-5.04c0.676,0.215,1.363,0.401,2.064,0.553L240.466,92h5.52l1.819-6.863c0.701-0.151,1.393-0.337,2.068-0.557l5.014,5.039l4.778-2.76l-1.857-6.863c0.524-0.481,1.03-0.983,1.507-1.511l6.867,1.861l2.761-4.782l-3.845-3.824H253.912z" /> <path fill="#5C87B3" d="M276.517,51.673v-3.545l-4.41-1.169c-0.097-0.451-0.22-0.894-0.359-1.325l3.237-3.22l-1.772-3.068l-4.406,1.19c-0.309-0.338-0.633-0.659-0.971-0.967l1.194-4.41l-3.072-1.773l-3.221,3.237c-0.43-0.139-0.874-0.257-1.324-0.354l-1.174-4.419h-3.545l-1.169,4.419c-0.451,0.097-0.89,0.216-1.321,0.354l-3.224-3.237l-3.069,1.773l1.195,4.41c-0.338,0.308-0.663,0.629-0.971,0.971l-4.41-1.194l-1.773,3.068l3.237,3.22c-0.139,0.435-0.258,0.878-0.354,1.325l-4.415,1.174v3.545l4.419,1.169c0.096,0.452,0.215,0.895,0.35,1.325l-3.237,3.22l1.773,3.073l4.415-1.195c0.308,0.337,0.628,0.663,0.966,0.966l-1.195,4.411l3.073,1.772l3.22-3.237c0.435,0.14,0.874,0.258,1.325,0.355l1.169,4.41h3.545l1.169-4.41c0.451-0.097,0.895-0.215,1.329-0.355l3.221,3.237l3.068-1.772l-1.194-4.411c0.337-0.308,0.662-0.633,0.971-0.97l4.41,1.195l1.772-3.069l-3.237-3.22c0.139-0.434,0.257-0.878,0.354-1.329L276.517,51.673z M266.983,49.904c0,4.698-3.811,8.509-8.513,8.509c-4.702,0-8.513-3.811-8.513-8.509c0-4.701,3.811-8.513,8.513-8.513C263.172,41.391,266.983,45.202,266.983,49.904" /> <polygon fill="#5C87B3" points="161.647,38.344 172.118,38.344 186.937,60.021 201.826,38.344 212.15,38.344 212.15,90.024 202.784,90.024 202.861,52.133 186.899,74.763 171.16,52.28 171.084,90.024 161.647,90.024 " /> <polygon fill="#5C87B3" points="115.791,38.344 125.08,38.344 125.08,59.797 146.976,59.797 146.976,38.344 156.337,38.344 156.337,90.024 146.976,90.024 147.124,68.571 125.152,68.648 125.152,90.024 115.791,90.024 " /> <polygon fill="#5C87B3" points="36.609,38.344 46.414,38.344 57.99,76.312 70.302,38.344 78.561,38.344 90.797,76.312 102.374,38.344 112.25,38.344 95.591,90.024 85.931,90.024 74.429,54.049 62.857,90.024 53.196,90.024 " /> <path fill="#8CBD5F" d="M253.431,71.264c-2.409,3.283-6.297,5.415-10.686,5.415c-7.318,0-13.248-5.929-13.248-13.249c0-7.318,5.93-13.252,13.248-13.252c5.719,0,10.593,3.625,12.451,8.698h8.892l-0.118-0.029c-0.148-0.705-0.333-1.393-0.548-2.068l5.035-5.01l-2.76-4.778l-6.862,1.857c-0.477-0.528-0.984-1.03-1.507-1.507l1.857-6.867l-4.782-2.76l-5.01,5.039c-0.676-0.215-1.363-0.401-2.064-0.548l-1.827-6.884h-5.52l-1.823,6.884c-0.701,0.151-1.384,0.333-2.059,0.548l-5.014-5.039l-4.778,2.76l1.857,6.867c-0.523,0.477-1.029,0.983-1.506,1.507l-6.867-1.857l-2.76,4.782l5.044,5.01c-0.219,0.675-0.401,1.363-0.553,2.064l-6.875,1.823v5.52l6.875,1.823c0.152,0.7,0.338,1.388,0.553,2.064l-5.044,5.014l2.76,4.782l6.871-1.861c0.477,0.527,0.979,1.029,1.507,1.506l-1.861,6.867l4.782,2.76l5.014-5.043c0.676,0.22,1.363,0.401,2.064,0.553l1.819,6.862h5.52l1.819-6.862c0.705-0.152,1.393-0.337,2.072-0.553l5.01,5.039l4.782-2.761l-1.861-6.866c0.528-0.477,1.03-0.979,1.507-1.506l6.866,1.857l2.76-4.778l-3.845-3.824H253.431z" /> <path fill="#D6D6D8" d="M276.04,51.196V47.65l-4.414-1.169c-0.097-0.452-0.216-0.895-0.355-1.329l3.234-3.217l-1.773-3.072l-4.406,1.194c-0.309-0.337-0.629-0.663-0.971-0.971l1.194-4.406l-3.068-1.772l-3.22,3.232c-0.435-0.135-0.874-0.257-1.325-0.35l-1.173-4.423h-3.546l-1.173,4.423c-0.447,0.097-0.891,0.216-1.321,0.355l-3.221-3.241l-3.072,1.772l1.194,4.415c-0.337,0.304-0.658,0.629-0.966,0.967l-4.411-1.194l-1.772,3.072l3.237,3.221c-0.139,0.43-0.257,0.874-0.354,1.325l-4.415,1.169v3.545l4.415,1.174c0.097,0.447,0.215,0.89,0.354,1.325l-3.237,3.22l1.772,3.073l4.411-1.199c0.308,0.342,0.633,0.663,0.97,0.971l-1.194,4.41l3.068,1.773l3.225-3.237c0.431,0.139,0.874,0.257,1.325,0.354l1.168,4.407h3.546l1.164-4.407c0.456-0.097,0.899-0.215,1.335-0.358l3.216,3.237l3.072-1.773l-1.194-4.411c0.337-0.304,0.662-0.629,0.967-0.966l4.41,1.194l1.773-3.072l-3.238-3.22c0.139-0.431,0.258-0.874,0.355-1.325L276.04,51.196z M266.502,49.423c0,4.702-3.811,8.513-8.508,8.513c-4.702,0-8.513-3.811-8.513-8.513s3.811-8.512,8.513-8.512C262.691,40.911,266.502,44.721,266.502,49.423" /> </g> <g> <g> <path fill="#231F20" d="M366.446,54.751v-0.187c0-18.015,13.535-33.79,33.416-33.79c19.882,0,33.23,15.588,33.23,33.603v0.187c0,18.015-13.535,33.79-33.416,33.79C379.793,88.354,366.446,72.766,366.446,54.751z M425.438,54.751v-0.187c0-14.841-10.828-26.976-25.762-26.976c-14.935,0-25.576,11.948-25.576,26.789v0.187c0,14.842,10.828,26.976,25.762,26.976C414.797,81.54,425.438,69.592,425.438,54.751z" /> <path fill="#231F20" d="M439.997,63.245v-0.187c0-15.775,11.481-25.109,23.055-25.109c8.961,0,14.748,4.854,18.482,10.268V19.094h7.187v68.14h-7.187v-9.707c-3.92,5.787-9.614,10.734-18.482,10.734C451.478,88.261,439.997,79.113,439.997,63.245z M481.814,63.152v-0.187c0-11.108-8.494-18.575-17.455-18.575c-9.334,0-16.988,6.907-16.988,18.575v0.187c0,11.388,7.934,18.668,16.988,18.668C473.32,81.82,481.814,74.259,481.814,63.152z" /> <path fill="#231F20" d="M500.257,20.494h8.214v7.934h-8.214V20.494z M500.723,38.976h7.187v48.258h-7.187V38.976z" /> <path fill="#231F20" d="M519.809,38.976h7.187v8.401c3.174-5.227,8.214-9.428,16.522-9.428c11.668,0,18.482,7.841,18.482,19.322v29.963h-7.187V59.044c0-8.961-4.854-14.561-13.348-14.561c-8.307,0-14.468,6.067-14.468,15.121v27.629h-7.187V38.976z" /> </g> <path fill="#AE132A" d="M373.237,102.48c0,1.944,1.576,3.52,3.52,3.52h45.292c1.944,0,3.52-1.576,3.52-3.52c0-1.944-1.576-3.52-3.52-3.52h-45.292C374.813,98.96,373.237,100.536,373.237,102.48C373.237,102.48,373.237,100.536,373.237,102.48z" /> </g> <g> <path fill="#527481" d="M659.802,74.168c-1.012,0-1.693,0.385-2.309,0.825c-1.803,1.334-4.272,3.16-8.449,3.16c-4.26,0-9.924-1.376-9.924-13.27c0-8.876,3.246-13.191,9.924-13.191c4.71,0,6.533,2.066,7.619,3.297c0.527,0.603,1.402,1.404,2.901,1.404c2.032,0,3.624-1.592,3.624-3.624c0-1.014-0.385-1.694-0.809-2.287c-0.734-1.008-4.824-6.039-13.334-6.039c-11.432,0-17.729,7.258-17.729,20.438c0,13.231,6.296,20.517,17.729,20.517c7.245,0,11.475-3.462,12.911-4.64c1.031-0.927,1.471-1.815,1.471-2.968C663.426,75.794,661.801,74.168,659.802,74.168z" /> <path fill="#527481" d="M679.004,77.595c-0.791,0-1.875,0-1.875-3.229V28.863c0-2.13-1.733-3.863-3.863-3.863c-2.094,0-3.863,1.769-3.863,3.863v45.503c0,6.76,3.499,10.636,9.601,10.636c2.042,0,3.703-1.661,3.703-3.703C682.707,79.256,681.046,77.595,679.004,77.595z" /> <path fill="#527481" d="M719.516,61.296c0-7.774-4.33-16.852-16.534-16.852c-11.267,0-17.729,7.449-17.729,20.438c0,16.958,10.074,20.517,18.526,20.517c8.102,0,12.55-4.038,13.359-4.847c0.441-0.441,1.261-1.261,1.261-2.761c0-1.998-1.626-3.624-3.624-3.624c-1.027,0-1.609,0.33-2.222,0.741c-2.135,1.602-4.57,3.165-8.775,3.165c-6.3,0-10.218-3.846-10.675-10.364h21.911C719.516,67.709,719.516,63.537,719.516,61.296z M711.832,60.621h-18.63c0.827-5.774,4.259-8.929,9.78-8.929C708.57,51.692,711.474,54.617,711.832,60.621z" /> <path fill="#527481" d="M806.268,61.296c0-7.774-4.33-16.852-16.533-16.852c-11.267,0-17.729,7.449-17.729,20.438c0,16.958,10.074,20.517,18.526,20.517c8.102,0,12.55-4.038,13.36-4.847c0.441-0.441,1.261-1.262,1.261-2.761c0-1.998-1.626-3.624-3.624-3.624c-1.028,0-1.609,0.33-2.222,0.741c-2.135,1.602-4.57,3.165-8.775,3.165c-6.301,0-10.219-3.846-10.675-10.364h21.911C806.268,67.709,806.268,63.537,806.268,61.296z M789.735,51.692c5.587,0,8.492,2.925,8.85,8.929h-18.631C780.781,54.848,784.214,51.692,789.735,51.692z" /> <path fill="#527481" d="M830.132,44.603c-3.932,0-7.405,1.328-9.802,3.623c-0.263-1.892-1.849-3.304-3.825-3.304c-2.166,0-3.863,1.697-3.863,3.863v32.354c0,2.166,1.697,3.863,3.863,3.863c2.166,0,3.863-1.696,3.863-3.863v-17.85c0-7.066,3.559-11.119,9.764-11.119c2.086,0,3.783-1.697,3.783-3.783C833.915,46.301,832.218,44.603,830.132,44.603z" /> <path fill="#527481" d="M856.412,44.444c-3.99,0-7.262,1.487-9.525,3.279V28.863c0-2.166-1.696-3.863-3.863-3.863c-2.166,0-3.863,1.697-3.863,3.863v39.526c0,10.493,6.488,17.012,16.932,17.012c11.381,0,17.649-7.286,17.649-20.517C873.742,47.99,864.318,44.444,856.412,44.444z M866.017,64.883c0,11.895-5.664,13.27-9.924,13.27c-5.937,0-9.207-3.468-9.207-9.764V57.686c0.57-1.141,3.338-5.994,9.207-5.994C862.771,51.692,866.017,56.007,866.017,64.883z" /> <path fill="#527481" d="M897.358,44.603c-3.931,0-7.405,1.328-9.803,3.623c-0.263-1.892-1.848-3.304-3.824-3.304c-2.166,0-3.863,1.697-3.863,3.863v32.354c0,2.166,1.696,3.863,3.863,3.863c2.166,0,3.863-1.696,3.863-3.863v-17.85c0-7.066,3.559-11.119,9.764-11.119c2.086,0,3.783-1.697,3.783-3.783C901.141,46.301,899.444,44.603,897.358,44.603z" /> <path fill="#527481" d="M910.17,31.216c-2.8,0-4.341,1.598-4.341,4.5c0,2.637,1.704,4.341,4.341,4.341c2.637,0,4.341-1.704,4.341-4.341C914.512,32.814,912.97,31.216,910.17,31.216z" /> <path fill="#527481" d="M910.17,44.922c-2.166,0-3.863,1.697-3.863,3.863v32.354c0,2.166,1.696,3.863,3.863,3.863c2.166,0,3.863-1.696,3.863-3.863V48.785C914.033,46.619,912.337,44.922,910.17,44.922z" /> <path fill="#527481" d="M950.348,25c-2.166,0-3.863,1.697-3.863,3.863v18.861c-2.264-1.793-5.535-3.279-9.526-3.279c-7.906,0-17.33,3.546-17.33,20.438c0,13.231,6.268,20.517,17.649,20.517c10.444,0,16.932-6.518,16.932-17.012V28.863C954.211,26.697,952.514,25,950.348,25z M946.485,57.686v10.703c0,6.296-3.27,9.764-9.207,9.764c-4.26,0-9.924-1.376-9.924-13.27c0-8.876,3.246-13.191,9.924-13.191C943.15,51.692,945.919,56.551,946.485,57.686z" /> <path fill="#527481" d="M1030.249,74.168c-1.027,0-1.609,0.33-2.222,0.741c-2.135,1.602-4.571,3.165-8.775,3.165c-6.3,0-10.218-3.846-10.675-10.364h21.911c4.501,0,4.501-4.172,4.501-6.413c0-7.774-4.33-16.852-16.534-16.852c-11.266,0-17.729,7.449-17.729,20.438c0,16.958,10.075,20.517,18.526,20.517c8.099,0,12.55-4.037,13.361-4.848c0.441-0.441,1.26-1.262,1.26-2.76C1033.873,75.794,1032.247,74.168,1030.249,74.168z M1027.304,60.621h-18.629c0.826-5.774,4.259-8.929,9.78-8.929C1024.042,51.692,1026.947,54.617,1027.304,60.621z" /> <path fill="#527481" d="M977.67,44.566c-11.464,0-17.778,7.274-17.778,20.483c0,13.157,6.314,20.404,17.778,20.404c3.541,0,6.878-1.102,9.426-3.042v1.411c0,7.593-5.342,9.187-9.823,9.187c-4.486,0-6.716-1.612-8.458-3.354c-0.871-0.871-1.747-1.26-2.837-1.26c-2.083,0-3.779,1.696-3.779,3.779c0,0.804,0.256,1.571,0.777,2.267c3.175,3.848,8.252,5.966,14.297,5.966c11.033,0,17.619-6.2,17.619-16.585V61.628C994.892,51.104,988.294,44.566,977.67,44.566z M977.67,51.805c5.903,0,9.426,3.673,9.426,9.824V72.74c-0.658,1.102-3.634,5.473-9.426,5.473c-6.77,0-10.062-4.306-10.062-13.164C967.609,56.137,970.9,51.805,977.67,51.805z" /> <path fill="#CB6A45" d="M723.619,47.949c-1.493,1.493-1.493,3.914,0,5.407l28.234,28.234c1.493,1.493,3.914,1.493,5.407,0l0.055-0.055c1.493-1.493,1.493-3.914,0-5.407l-28.234-28.234c-1.493-1.493-3.914-1.493-5.407,0L723.619,47.949z" /> <path fill="#DD8244" d="M765.947,46.775h-39.624c-2.112,0-3.824,1.712-3.824,3.824v0.077c0,1.177,0.532,2.228,1.368,2.93l7.46,7.46l0,0c-1.493-1.493-1.493-3.914,0-5.407l0.055-0.055c0.747-0.747,1.725-1.12,2.704-1.12l1.6,0.016l0,0l0,0h30.261c2.112,0,3.824-1.712,3.824-3.824v-0.077C769.771,48.487,768.059,46.775,765.947,46.775z" /> </g></svg>
