<svg xmlns="http://www.w3.org/2000/svg" xmlns:xlink="http://www.w3.org/1999/xlink" width="1010" height="122" viewBox="0 0 1010 122"><svg viewBox="-5 -5 1089 130" width="1010" height="121.21408711770157" id="billing-system-overview" y="0"><title>cloud platform with whmcs, osa and cleverbridge billing systems</title><desc>PaaS cloud platform offers integration with popular billing systems WHMCS and OSA to speed up the deployment</desc><path fill="#5C87B3" d="M300.178 50.508v-9.213s-6.192-3.689-13.933-3.689c-5.68 0-16.785 1.004-18.211 15.742 0 0-1.667 10.552 14.966 14.266 0 0 11.058 2.321 11.058 8.183-.186 2.874-1.106 5.825-11.058 5.825-9.585-.591-10.691-2.874-14.451-4.939v9.581s4.794 4.055 16.735 4.427c11.648-.442 17.604-5.824 18.672-14.434 0 0 1.604-11.742-14.392-16.608-9.365-3.169-11.872-2.064-12.315-7.149.076-4.571 4.794-5.896 9.808-6.044 7.887 0 13.121 4.052 13.121 4.052"></path><path fill="#5C87B3" d="M253.912 71.742c-2.414 3.283-6.301 5.419-10.686 5.419-7.318 0-13.253-5.934-13.253-13.252 0-7.319 5.935-13.249 13.253-13.249 5.719 0 10.59 3.621 12.447 8.698h8.892l-.114-.034c-.152-.7-.337-1.388-.553-2.064l5.035-5.01-2.761-4.782-6.862 1.857a22.087 22.087 0 0 0-1.507-1.507l1.861-6.863-4.782-2.76-5.014 5.04a21.015 21.015 0 0 0-2.064-.554l-1.823-6.884h-5.52l-1.823 6.884c-.701.152-1.389.338-2.06.554l-5.014-5.044-4.782 2.76 1.861 6.871c-.528.477-1.03.98-1.511 1.507l-6.863-1.861-2.76 4.782 5.039 5.014a21.07 21.07 0 0 0-.549 2.063l-6.879 1.823v5.521l6.88 1.821c.148.7.333 1.389.549 2.064l-5.039 5.014 2.76 4.782 6.867-1.861c.477.528.983 1.03 1.511 1.507l-1.861 6.871 4.782 2.757 5.014-5.04a22.62 22.62 0 0 0 2.064.553L240.466 92h5.52l1.819-6.863a20.848 20.848 0 0 0 2.068-.557l5.014 5.039 4.778-2.76-1.857-6.863c.524-.481 1.03-.983 1.507-1.511l6.867 1.861 2.761-4.782-3.845-3.824h-11.186z"></path><path fill="#5C87B3" d="M276.517 51.673v-3.545l-4.41-1.169c-.097-.451-.22-.894-.359-1.325l3.237-3.22-1.772-3.068-4.406 1.19a15.012 15.012 0 0 0-.971-.967l1.194-4.41-3.072-1.773-3.221 3.237c-.43-.139-.874-.257-1.324-.354l-1.174-4.419h-3.545l-1.169 4.419c-.451.097-.89.216-1.321.354l-3.224-3.237-3.069 1.773 1.195 4.41c-.338.308-.663.629-.971.971l-4.41-1.194-1.773 3.068 3.237 3.22c-.139.435-.258.878-.354 1.325l-4.415 1.174v3.545l4.419 1.169c.096.452.215.895.35 1.325l-3.237 3.22 1.773 3.073 4.415-1.195c.308.337.628.663.966.966l-1.195 4.411 3.073 1.772 3.22-3.237c.435.14.874.258 1.325.355l1.169 4.41h3.545l1.169-4.41c.451-.097.895-.215 1.329-.355l3.221 3.237 3.068-1.772-1.194-4.411c.337-.308.662-.633.971-.97l4.41 1.195 1.772-3.069-3.237-3.22c.139-.434.257-.878.354-1.329l4.411-1.17zm-9.534-1.769c0 4.698-3.811 8.509-8.513 8.509s-8.513-3.811-8.513-8.509a8.513 8.513 0 0 1 17.026 0M161.647 38.344h10.471l14.819 21.677 14.889-21.677h10.324v51.68h-9.366l.077-37.891-15.962 22.63L171.16 52.28l-.076 37.744h-9.437zM115.791 38.344h9.289v21.453h21.896V38.344h9.361v51.68h-9.361l.148-21.453-21.972.077v21.376h-9.361zM36.609 38.344h9.805L57.99 76.312l12.312-37.968h8.259l12.236 37.968 11.577-37.968h9.876l-16.659 51.68h-9.66L74.429 54.049 62.857 90.024h-9.661z"></path><path fill="#8CBD5F" d="M253.431 71.264a13.225 13.225 0 0 1-10.686 5.415c-7.318 0-13.248-5.929-13.248-13.249 0-7.318 5.93-13.252 13.248-13.252 5.719 0 10.593 3.625 12.451 8.698h8.892l-.118-.029a21.071 21.071 0 0 0-.548-2.068l5.035-5.01-2.76-4.778-6.862 1.857a22.087 22.087 0 0 0-1.507-1.507l1.857-6.867-4.782-2.76-5.01 5.039a21.086 21.086 0 0 0-2.064-.548l-1.827-6.884h-5.52l-1.823 6.884c-.701.151-1.384.333-2.059.548l-5.014-5.039-4.778 2.76 1.857 6.867a23.02 23.02 0 0 0-1.506 1.507l-6.867-1.857-2.76 4.782 5.044 5.01a21.316 21.316 0 0 0-.553 2.064l-6.875 1.823v5.52l6.875 1.823c.152.7.338 1.388.553 2.064l-5.044 5.014 2.76 4.782 6.871-1.861a21.2 21.2 0 0 0 1.507 1.506l-1.861 6.867 4.782 2.76 5.014-5.043c.676.22 1.363.401 2.064.553l1.819 6.862h5.52l1.819-6.862a22.38 22.38 0 0 0 2.072-.553l5.01 5.039 4.782-2.761-1.861-6.866a21.2 21.2 0 0 0 1.507-1.506l6.866 1.857 2.76-4.778-3.845-3.824h-11.187z"></path><path fill="#D6D6D8" d="M276.04 51.196V47.65l-4.414-1.169a13.956 13.956 0 0 0-.355-1.329l3.234-3.217-1.773-3.072-4.406 1.194a14.346 14.346 0 0 0-.971-.971l1.194-4.406-3.068-1.772-3.22 3.232a14.016 14.016 0 0 0-1.325-.35l-1.173-4.423h-3.546l-1.173 4.423c-.447.097-.891.216-1.321.355l-3.221-3.241-3.072 1.772 1.194 4.415c-.337.304-.658.629-.966.967l-4.411-1.194-1.772 3.072 3.237 3.221c-.139.43-.257.874-.354 1.325l-4.415 1.169v3.545l4.415 1.174c.097.447.215.89.354 1.325l-3.237 3.22 1.772 3.073 4.411-1.199c.308.342.633.663.97.971l-1.194 4.41 3.068 1.773 3.225-3.237c.431.139.874.257 1.325.354l1.168 4.407h3.546l1.164-4.407c.456-.097.899-.215 1.335-.358l3.216 3.237 3.072-1.773-1.194-4.411c.337-.304.662-.629.967-.966l4.41 1.194 1.773-3.072-3.238-3.22c.139-.431.258-.874.355-1.325l4.414-1.17zm-9.538-1.773c0 4.702-3.811 8.513-8.508 8.513a8.512 8.512 0 1 1 0-17.025c4.697 0 8.508 3.81 8.508 8.512"></path><g><g fill="#231F20"><path d="M366.446 54.751v-.187c0-18.015 13.535-33.79 33.416-33.79 19.882 0 33.23 15.588 33.23 33.603v.187c0 18.015-13.535 33.79-33.416 33.79-19.883 0-33.23-15.588-33.23-33.603zm58.992 0v-.187c0-14.841-10.828-26.976-25.762-26.976-14.935 0-25.576 11.948-25.576 26.789v.187c0 14.842 10.828 26.976 25.762 26.976 14.935 0 25.576-11.948 25.576-26.789zM439.997 63.245v-.187c0-15.775 11.481-25.109 23.055-25.109 8.961 0 14.748 4.854 18.482 10.268V19.094h7.187v68.14h-7.187v-9.707c-3.92 5.787-9.614 10.734-18.482 10.734-11.574 0-23.055-9.148-23.055-25.016zm41.817-.093v-.187c0-11.108-8.494-18.575-17.455-18.575-9.334 0-16.988 6.907-16.988 18.575v.187c0 11.388 7.934 18.668 16.988 18.668 8.961 0 17.455-7.561 17.455-18.668zM500.257 20.494h8.214v7.934h-8.214v-7.934zm.466 18.482h7.187v48.258h-7.187V38.976zM519.809 38.976h7.187v8.401c3.174-5.227 8.214-9.428 16.522-9.428 11.668 0 18.482 7.841 18.482 19.322v29.963h-7.187v-28.19c0-8.961-4.854-14.561-13.348-14.561-8.307 0-14.468 6.067-14.468 15.121v27.629h-7.187V38.976z"></path></g><path fill="#AE132A" d="M373.237 102.48a3.52 3.52 0 0 0 3.52 3.52h45.292a3.52 3.52 0 0 0 0-7.04h-45.292a3.52 3.52 0 0 0-3.52 3.52s0-1.944 0 0z"></path></g><g><path fill="#527481" d="M659.802 74.168c-1.012 0-1.693.385-2.309.825-1.803 1.334-4.272 3.16-8.449 3.16-4.26 0-9.924-1.376-9.924-13.27 0-8.876 3.246-13.191 9.924-13.191 4.71 0 6.533 2.066 7.619 3.297.527.603 1.402 1.404 2.901 1.404a3.586 3.586 0 0 0 3.624-3.624c0-1.014-.385-1.694-.809-2.287-.734-1.008-4.824-6.039-13.334-6.039-11.432 0-17.729 7.258-17.729 20.438 0 13.231 6.296 20.517 17.729 20.517 7.245 0 11.475-3.462 12.911-4.64 1.031-.927 1.471-1.815 1.471-2.968a3.629 3.629 0 0 0-3.625-3.622zM679.004 77.595c-.791 0-1.875 0-1.875-3.229V28.863A3.867 3.867 0 0 0 673.266 25c-2.094 0-3.863 1.769-3.863 3.863v45.503c0 6.76 3.499 10.636 9.601 10.636a3.707 3.707 0 0 0 3.703-3.703 3.707 3.707 0 0 0-3.703-3.704zM719.516 61.296c0-7.774-4.33-16.852-16.534-16.852-11.267 0-17.729 7.449-17.729 20.438 0 16.958 10.074 20.517 18.526 20.517 8.102 0 12.55-4.038 13.359-4.847.441-.441 1.261-1.261 1.261-2.761a3.628 3.628 0 0 0-3.624-3.624c-1.027 0-1.609.33-2.222.741-2.135 1.602-4.57 3.165-8.775 3.165-6.3 0-10.218-3.846-10.675-10.364h21.911c4.502 0 4.502-4.172 4.502-6.413zm-7.684-.675h-18.63c.827-5.774 4.259-8.929 9.78-8.929 5.588 0 8.492 2.925 8.85 8.929zM806.268 61.296c0-7.774-4.33-16.852-16.533-16.852-11.267 0-17.729 7.449-17.729 20.438 0 16.958 10.074 20.517 18.526 20.517 8.102 0 12.55-4.038 13.36-4.847.441-.441 1.261-1.262 1.261-2.761a3.628 3.628 0 0 0-3.624-3.624c-1.028 0-1.609.33-2.222.741-2.135 1.602-4.57 3.165-8.775 3.165-6.301 0-10.219-3.846-10.675-10.364h21.911c4.5 0 4.5-4.172 4.5-6.413zm-16.533-9.604c5.587 0 8.492 2.925 8.85 8.929h-18.631c.827-5.773 4.26-8.929 9.781-8.929zM830.132 44.603c-3.932 0-7.405 1.328-9.802 3.623-.263-1.892-1.849-3.304-3.825-3.304a3.822 3.822 0 0 0-3.863 3.863v32.354a3.822 3.822 0 0 0 3.863 3.863 3.821 3.821 0 0 0 3.863-3.863v-17.85c0-7.066 3.559-11.119 9.764-11.119a3.787 3.787 0 0 0 3.783-3.783 3.788 3.788 0 0 0-3.783-3.784zM856.412 44.444c-3.99 0-7.262 1.487-9.525 3.279v-18.86A3.821 3.821 0 0 0 843.024 25a3.822 3.822 0 0 0-3.863 3.863v39.526c0 10.493 6.488 17.012 16.932 17.012 11.381 0 17.649-7.286 17.649-20.517 0-16.894-9.424-20.44-17.33-20.44zm9.605 20.439c0 11.895-5.664 13.27-9.924 13.27-5.937 0-9.207-3.468-9.207-9.764V57.686c.57-1.141 3.338-5.994 9.207-5.994 6.678 0 9.924 4.315 9.924 13.191zM897.358 44.603c-3.931 0-7.405 1.328-9.803 3.623-.263-1.892-1.848-3.304-3.824-3.304a3.822 3.822 0 0 0-3.863 3.863v32.354a3.821 3.821 0 0 0 3.863 3.863 3.821 3.821 0 0 0 3.863-3.863v-17.85c0-7.066 3.559-11.119 9.764-11.119a3.787 3.787 0 0 0 3.783-3.783 3.788 3.788 0 0 0-3.783-3.784zM910.17 31.216c-2.8 0-4.341 1.598-4.341 4.5 0 2.637 1.704 4.341 4.341 4.341 2.637 0 4.341-1.704 4.341-4.341.001-2.902-1.541-4.5-4.341-4.5zM910.17 44.922a3.822 3.822 0 0 0-3.863 3.863v32.354a3.821 3.821 0 0 0 3.863 3.863 3.821 3.821 0 0 0 3.863-3.863V48.785a3.821 3.821 0 0 0-3.863-3.863zM950.348 25a3.822 3.822 0 0 0-3.863 3.863v18.861a15.324 15.324 0 0 0-9.526-3.279c-7.906 0-17.33 3.546-17.33 20.438 0 13.231 6.268 20.517 17.649 20.517 10.444 0 16.932-6.518 16.932-17.012V28.863A3.82 3.82 0 0 0 950.348 25zm-3.863 32.686v10.703c0 6.296-3.27 9.764-9.207 9.764-4.26 0-9.924-1.376-9.924-13.27 0-8.876 3.246-13.191 9.924-13.191 5.872 0 8.641 4.859 9.207 5.994zM1030.249 74.168c-1.027 0-1.609.33-2.222.741-2.135 1.602-4.571 3.165-8.775 3.165-6.3 0-10.218-3.846-10.675-10.364h21.911c4.501 0 4.501-4.172 4.501-6.413 0-7.774-4.33-16.852-16.534-16.852-11.266 0-17.729 7.449-17.729 20.438 0 16.958 10.075 20.517 18.526 20.517 8.099 0 12.55-4.037 13.361-4.848.441-.441 1.26-1.262 1.26-2.76a3.628 3.628 0 0 0-3.624-3.624zm-2.945-13.547h-18.629c.826-5.774 4.259-8.929 9.78-8.929 5.587 0 8.492 2.925 8.849 8.929zM977.67 44.566c-11.464 0-17.778 7.274-17.778 20.483 0 13.157 6.314 20.404 17.778 20.404 3.541 0 6.878-1.102 9.426-3.042v1.411c0 7.593-5.342 9.187-9.823 9.187-4.486 0-6.716-1.612-8.458-3.354-.871-.871-1.747-1.26-2.837-1.26a3.784 3.784 0 0 0-3.779 3.779c0 .804.256 1.571.777 2.267 3.175 3.848 8.252 5.966 14.297 5.966 11.033 0 17.619-6.2 17.619-16.585V61.628c0-10.524-6.598-17.062-17.222-17.062zm0 7.239c5.903 0 9.426 3.673 9.426 9.824V72.74c-.658 1.102-3.634 5.473-9.426 5.473-6.77 0-10.062-4.306-10.062-13.164.001-8.912 3.292-13.244 10.062-13.244z"></path><path fill="#CB6A45" d="M723.619 47.949a3.824 3.824 0 0 0 0 5.407l28.234 28.234a3.824 3.824 0 0 0 5.407 0l.055-.055a3.824 3.824 0 0 0 0-5.407l-28.234-28.234a3.824 3.824 0 0 0-5.407 0l-.055.055z"></path><path fill="#DD8244" d="M765.947 46.775h-39.624a3.824 3.824 0 0 0-3.824 3.824v.077c0 1.177.532 2.228 1.368 2.93l7.46 7.46a3.824 3.824 0 0 1 0-5.407l.055-.055a3.81 3.81 0 0 1 2.704-1.12l1.6.016h30.261a3.824 3.824 0 0 0 3.824-3.824v-.077a3.824 3.824 0 0 0-3.824-3.824z"></path></g></svg></svg>